<svg width="20" height="14" viewBox="0 0 20 14" fill="none" xmlns="http://www.w3.org/2000/svg">
<path d="M9.94745 0.141449C8.22505 0.141449 6.82878 1.77162 6.82878 3.78253C6.82878 5.17716 7.50038 6.3884 8.48658 6.99998L7.34297 7.53L4.29965 8.94146C4.00565 9.08848 3.85892 9.33776 3.85892 9.69058V13.0423C3.8831 13.4613 4.13453 13.8519 4.54218 13.8585H15.3692C15.8346 13.818 16.07 13.4432 16.0746 13.0423V9.69058C16.0746 9.33776 15.9279 9.08848 15.6339 8.94146L12.7008 7.53L11.4818 6.9525C12.4275 6.32715 13.0661 5.1421 13.0661 3.78255C13.0661 1.77162 11.6698 0.141449 9.94745 0.141449ZM4.91705 1.42185C4.17583 1.45 3.5884 1.77073 3.1421 2.28178C2.64843 2.89708 2.40777 3.62761 2.40312 4.35435C2.43343 5.42898 2.91427 6.44631 3.77027 6.97845L0.352717 8.5666C0.1175 8.6548 0 8.86058 0 9.184V11.874C0.0183667 12.2307 0.2036 12.5305 0.550917 12.5357H2.82232V9.69058C2.8599 8.92993 3.2171 8.3151 3.85892 8.01506L6.1297 6.93478C6.3061 6.83186 6.47522 6.69198 6.63692 6.51558C5.70065 5.07098 5.57063 3.34073 6.17403 1.8189C5.78158 1.57872 5.34053 1.42437 4.91705 1.42185ZM15.0602 1.42185C14.5754 1.432 14.1275 1.6105 13.7595 1.86258C14.3465 3.3982 14.1846 5.12951 13.3181 6.47125C13.5093 6.69175 13.7082 6.86086 13.914 6.97848L16.0968 8.01506C16.7617 8.37975 17.1046 9.00003 17.1112 9.6906V12.5357H19.4485C19.8328 12.5025 19.9967 12.1959 20 11.874V9.18401C20 8.89 19.8825 8.68423 19.6473 8.5666L16.2734 6.9563C17.1484 6.31116 17.5878 5.3443 17.5963 4.35435C17.573 3.57081 17.3336 2.84328 16.8573 2.28178C16.3595 1.7418 15.7421 1.42757 15.0602 1.42185Z" fill="#8C8C8C"/>
</svg>
